PathFileType	4	(X/Y/Z)	C:/Users/beibeiliu/ov580/test_trc/capture2\sequence.7_training_dense_right.trc
DataRate	CameraRate	NumFrames	NumMarkers	Units	OrigDataRate	OrigDataStartFrame	OrigNumFrames
120	120	12	19	mm	120	101	400
Frame#	Time	ThumbCMC			ThumbMCP			ThumbIP			ThumbTip			IndexMCP			IndexPIP			IndexTip			MiddleMCP			MiddlePIP			MiddleTip			RingMCP			RingPIP			RingTip			PinkyMCP			PinkyPIP			PinkyTip			BackHand1			BackHand2			BackHand3	
		X0	Y0	Z0	X1	Y1	Z1	X2	Y2	Z2	X3	Y3	Z3	X4	Y4	Z4	X5	Y5	Z5	X6	Y6	Z6	X7	Y7	Z7	X8	Y8	Z8	X9	Y9	Z9	X10	Y10	Z10	X11	Y11	Z11	X12	Y12	Z12	X13	Y13	Z13	X14	Y14	Z14	X15	Y15	Z15	X16	Y16	Z16	X17	Y17	Z17	X18	Y18	Z18	
100	0.833333	169.276	107.349	-38.6428	156.026	115.634	-60.8393	150.789	127.061	-82.8714	150.837	134.592	-106.413	174.19	90.3822	-109.365	145.078	77.9752	-106.674	149.845	76.5028	-75.016	178.7	71.3099	-109.151	150.586	58.995	-99.6762	156.131	68.1022	-66.5693	182.251	53.2191	-101.886	154.578	48.773	-86.2504	171.342	62.993	-57.8086	187.767	39.3806	-90.8929	161.053	39.9224	-78.0798	172.256	53.0436	-49.056	214.342	68.9759	-59.8202	215.236	66.8616	-28.4743	203.968	97.4811	-46.4981	
101	0.841667	165.174	108.447	-42.8143	153.539	110.179	-64.7761	146.305	125.786	-87.8559	140.885	133.304	-102.77	168.161	92.1105	-111.573	143.677	75.8602	-108.039	150.634	75.895	-72.8499	176.676	70.2335	-111.232	151.019	58.5715	-101.989	157.705	69.0042	-64.947	180.629	55.974	-103.095	156.569	47.0655	-86.386	169.106	62.7366	-58.9228	190.231	42.1554	-90.0724	163.786	39.1485	-75.7499	172.614	54.5672	-48.9163	214.752	70.0974	-57.9896	211.984	72.5029	-27.8791	201.335	97.8321	-47.7385	
102	0.85	162.915	103.901	-42.1875	147.832	109.348	-63.5317	139.848	122.569	-88.1259	134.94	126.905	-103.468	168.571	89.6579	-110.655	144.555	70.0203	-108.698	149.303	72.0303	-73.9641	178.083	70.4421	-110.895	151.386	53.3578	-99.9524	160.964	65.6157	-63.988	184.259	53.9226	-102.171	158.466	44.4912	-87.9332	168.273	60.3346	-59.0509	189.328	41.6913	-92.5401	166.876	36.3528	-76.0728	174.923	51.8638	-49.537	214.907	75.2618	-64.3647	214.009	75.4202	-28.0001	198.64	99.4463	-48.203	
103	0.858333	156.429	103.587	-40.9044	144.009	104.01	-63.519	136.002	114.88	-86.1082	127.996	126.066	-106.585	165.09	83.985	-112.393	141.028	66.1977	-105.371	146.482	71.8618	-72.7898	177.69	67.4347	-110.387	150.937	52.198	-99.8772	156.063	63.7442	-66.948	181.908	53.6865	-104.308	161.314	40.5764	-88.4795	169.265	56.5835	-59.4263	191.535	39.7289	-93.6201	168.933	34.5213	-78.0375	174.537	51.6999	-50.054	215.104	76.3613	-63.8243	212	79.6811	-30.0734	191.906	104.175	-48.6324	
104	0.866667	154.953	95.5614	-40.4398	137.623	101.382	-63.9834	130.61	109.217	-86.6111	122.164	116.656	-103.458	159.998	86.1275	-111.391	138.59	61.4956	-105.642	148.431	64.7972	-73.6512	171.683	68.5934	-112.925	152.911	46.2466	-100.466	158.17	57.8885	-66.0374	183.464	51.4341	-104.367	159.932	39.6204	-87.247	171.882	54.4782	-58.5782	195.401	41.6042	-93.7532	171.918	31.6444	-76.408	177.06	55.1034	-50.256	212.738	79.5021	-61.1016	210.083	78.9058	-29.109	189.5	98.8896	-47.6979	
105	0.875	150.609	92.6154	-41.4784	133.012	93.4259	-63.2536	121.482	103.478	-86.0585	113.699	110.255	-104.223	156.434	80.8516	-112.237	139.615	56.9605	-106.903	145.417	59.0032	-74.9361	171.867	65.7564	-111.623	154.518	43.1465	-102.493	157.427	55.5909	-66.2722	180.223	51.3338	-105.027	161.253	37.6577	-86.5499	167.773	52.5577	-59.6609	195.504	42.2569	-93.8848	172.471	33.3829	-74.7075	178.486	52.482	-51.4564	209.379	80.8196	-64.3756	206.512	82.5334	-31.0143	182.262	100.115	-50.4605	
106	0.883333	144.097	91.3868	-40.3268	129.209	89.0944	-61.2005	117.485	97.5997	-84.7938	108.513	101.409	-100.471	156.937	76.944	-111.505	143.44	52.3083	-108.63	147.329	55.3295	-73.3438	172.41	62.7353	-111.644	155.418	39.0976	-99.5204	159.012	55.2222	-63.8454	181.434	52.0285	-105.062	165.031	34.885	-88.0974	167.657	51.8519	-60.6284	199.056	43.0856	-92.9711	177.649	30.7622	-72.0365	182.975	49.8971	-49.9286	211.268	82.6434	-64.6446	208.386	82.4501	-30.2999	180.393	100.641	-51.2026	
107	0.891667	142.079	86.337	-38.4634	130.079	81.4922	-62.3767	114.783	90.1529	-84.5045	101.313	95.5768	-99.5584	152.22	77.7713	-111.017	138.02	48.9225	-106.508	145.717	53.3719	-71.6827	168.443	63.6842	-113.089	155.002	39.0138	-100.814	160.513	47.4638	-66.2062	181.759	53.6566	-104.218	168.798	31.4289	-84.5632	169.342	50.8961	-60.1688	197.347	43.6818	-94.1485	179.986	30.1081	-76.3609	180.308	53.8081	-51.3301	207.513	85.0747	-64.4804	203.794	87.3773	-33.9526	176.017	100.411	-48.3093	
108	0.9	139.396	75.1173	-34.7541	121.659	70.6037	-59.2359	103.717	74.1774	-77.5545	93.9331	77.1973	-96.0865	145.225	73.1505	-107.271	139.362	39.9336	-104.136	144.072	43.987	-70.663	163.501	67.1473	-108.291	160.032	33.7106	-101.923	157.696	43.2605	-65.9887	178.824	52.9197	-104.964	172.292	29.3804	-86.4426	171.781	48.6546	-56.8972	194.611	47.6606	-95.178	182.087	32.0627	-78.1413	180.245	52.278	-49.6961	198.575	89.5652	-62.3422	194.228	91.8529	-32.173	165.52	99.4557	-45.5999	
109	0.908333	126.608	48.7903	-26.6221	115.455	38.8389	-47.5499	94.5947	36.2577	-69.4787	82.4492	35.2327	-86.6745	125.036	55.9265	-97.861	135.643	26.6309	-103.628	145.893	29.0222	-67.6779	150.255	56.3484	-106.213	154.902	27.428	-99.7472	159.86	33.9706	-63.9297	170.022	55.9187	-102.083	175.145	29.6215	-90.0872	168.575	41.1674	-57.6779	182.492	58.8071	-94.4284	183.162	34.1013	-77.2502	173.472	49.9203	-51.8256	170.03	91.0369	-55.8587	173.925	90.1742	-25.4079	142.413	80.4169	-35.3576	
110	0.916667	121.809	35.9489	-25.0908	110.773	22.4214	-43.5255	90.7644	15.6452	-58.5704	75.0826	12.128	-76.8591	119.638	48.1735	-95.3532	136.234	20.6073	-101.432	143.665	20.3059	-69.3052	135.091	53.4992	-100.667	155.702	25.5203	-97.129	155.602	31.8025	-61.8078	157.188	59.1268	-99.0258	167.112	29.4765	-88.8424	163.311	37.1443	-60.0877	172.317	63.8244	-94.1403	177.098	38.3867	-81.6203	170.741	48.6787	-49.8552	154.809	88.5335	-50.6429	160.638	83.3081	-19.2747	128.458	71.1475	-32.2259	
111	0.925	124.06	32.084	-23.3739	111.249	18.1533	-40.2261	90.2543	10.596	-54.3659	75.5911	6.52259	-71.4878	114.017	44.4798	-94.3098	132.307	19.0828	-102.112	140.251	18.1505	-69.7893	132.034	53.4521	-99.737	148.703	26.1565	-100.529	150.25	31.0429	-60.5675	151.986	59.583	-98.9226	163.373	32.6445	-91.1877	159.361	38.9326	-57.765	164.295	67.5289	-90.651	174.436	41.0541	-82.8552	168.121	46.7981	-52.8693	142.721	85.1106	-50.3299	155.867	83.8327	-19.4766	124.773	65.4927	-25.4295	
